<mxfile host="Electron" modified="2024-03-15T09:13:52.720Z" agent="Mozilla/5.0 (X11; Linux x86_64) AppleWebKit/537.36 (KHTML, like Gecko) draw.io/24.0.4 Chrome/120.0.6099.109 Electron/28.1.0 Safari/537.36" etag="yIDDI0OPTSN856T1DxCt" version="24.0.4" type="device">
  <diagram name="Page-1" id="305oOvghESKLJlHV2kEa">
    <mxGraphModel dx="988" dy="551" grid="1" gridSize="10" guides="1" tooltips="1" connect="1" arrows="1" fold="1" page="1" pageScale="1" pageWidth="1654" pageHeight="1169" math="0" shadow="0">
      <root>
        <mxCell id="0" />
        <mxCell id="1" parent="0" />
        <mxCell id="Tn5OK8RQXXek_MzrMybz-1" value="" style="rounded=0;whiteSpace=wrap;html=1;movable=1;resizable=1;rotatable=1;deletable=1;editable=1;locked=0;connectable=0;" vertex="1" parent="1">
          <mxGeometry x="490" y="330" width="390" height="250" as="geometry" />
        </mxCell>
        <mxCell id="Tn5OK8RQXXek_MzrMybz-2" value="处理器核" style="rounded=0;whiteSpace=wrap;html=1;" vertex="1" parent="1">
          <mxGeometry x="520" y="350" width="70" height="130" as="geometry" />
        </mxCell>
        <mxCell id="Tn5OK8RQXXek_MzrMybz-3" value="" style="shape=flexArrow;endArrow=classic;startArrow=classic;html=1;rounded=0;" edge="1" parent="1">
          <mxGeometry width="100" height="100" relative="1" as="geometry">
            <mxPoint x="670" y="380" as="sourcePoint" />
            <mxPoint x="590" y="380" as="targetPoint" />
          </mxGeometry>
        </mxCell>
        <mxCell id="Tn5OK8RQXXek_MzrMybz-4" value="" style="shape=flexArrow;endArrow=classic;startArrow=classic;html=1;rounded=0;" edge="1" parent="1">
          <mxGeometry width="100" height="100" relative="1" as="geometry">
            <mxPoint x="670" y="450" as="sourcePoint" />
            <mxPoint x="590" y="450" as="targetPoint" />
          </mxGeometry>
        </mxCell>
        <mxCell id="Tn5OK8RQXXek_MzrMybz-6" value="数据总线" style="text;html=1;align=center;verticalAlign=middle;whiteSpace=wrap;rounded=0;" vertex="1" parent="1">
          <mxGeometry x="600" y="340" width="60" height="30" as="geometry" />
        </mxCell>
        <mxCell id="Tn5OK8RQXXek_MzrMybz-7" value="指令总线" style="text;html=1;align=center;verticalAlign=middle;whiteSpace=wrap;rounded=0;" vertex="1" parent="1">
          <mxGeometry x="600" y="410" width="60" height="30" as="geometry" />
        </mxCell>
        <mxCell id="Tn5OK8RQXXek_MzrMybz-10" value="" style="shape=flexArrow;endArrow=classic;startArrow=classic;html=1;rounded=0;exitX=1;exitY=0.5;exitDx=0;exitDy=0;" edge="1" parent="1" source="Tn5OK8RQXXek_MzrMybz-8">
          <mxGeometry width="100" height="100" relative="1" as="geometry">
            <mxPoint x="760" y="410" as="sourcePoint" />
            <mxPoint x="800" y="415" as="targetPoint" />
          </mxGeometry>
        </mxCell>
        <mxCell id="Tn5OK8RQXXek_MzrMybz-11" value="" style="group" vertex="1" connectable="0" parent="1">
          <mxGeometry x="657" y="345" width="87" height="141" as="geometry" />
        </mxCell>
        <mxCell id="Tn5OK8RQXXek_MzrMybz-8" value="AXI&lt;div&gt;主机仲裁器&lt;/div&gt;" style="rounded=0;whiteSpace=wrap;html=1;connectable=1;" vertex="1" parent="Tn5OK8RQXXek_MzrMybz-11">
          <mxGeometry x="17" y="5" width="70" height="130" as="geometry" />
        </mxCell>
        <mxCell id="Tn5OK8RQXXek_MzrMybz-9" value="P0&lt;div&gt;&lt;br&gt;&lt;/div&gt;&lt;div&gt;&lt;br&gt;&lt;/div&gt;&lt;div&gt;&lt;br&gt;&lt;/div&gt;&lt;div&gt;&lt;br&gt;&lt;/div&gt;&lt;div&gt;P1&lt;/div&gt;" style="text;html=1;align=center;verticalAlign=middle;whiteSpace=wrap;rounded=0;" vertex="1" parent="Tn5OK8RQXXek_MzrMybz-11">
          <mxGeometry width="59" height="141" as="geometry" />
        </mxCell>
        <mxCell id="Tn5OK8RQXXek_MzrMybz-12" value="AXI&lt;div&gt;读写分用器&lt;/div&gt;" style="rounded=0;whiteSpace=wrap;html=1;connectable=1;" vertex="1" parent="1">
          <mxGeometry x="800" y="350" width="70" height="130" as="geometry" />
        </mxCell>
        <mxCell id="Tn5OK8RQXXek_MzrMybz-13" value="" style="shape=flexArrow;endArrow=classic;startArrow=classic;html=1;rounded=0;entryX=0.5;entryY=1;entryDx=0;entryDy=0;" edge="1" parent="1" target="Tn5OK8RQXXek_MzrMybz-12">
          <mxGeometry width="100" height="100" relative="1" as="geometry">
            <mxPoint x="835" y="530" as="sourcePoint" />
            <mxPoint x="846" y="520" as="targetPoint" />
          </mxGeometry>
        </mxCell>
        <mxCell id="Tn5OK8RQXXek_MzrMybz-15" value="片上外设" style="whiteSpace=wrap;html=1;" vertex="1" parent="1">
          <mxGeometry x="800" y="530" width="70" height="40" as="geometry" />
        </mxCell>
        <mxCell id="Tn5OK8RQXXek_MzrMybz-16" value="调试接口" style="whiteSpace=wrap;html=1;" vertex="1" parent="1">
          <mxGeometry x="520" y="590" width="70" height="40" as="geometry" />
        </mxCell>
        <mxCell id="Tn5OK8RQXXek_MzrMybz-17" value="" style="shape=flexArrow;endArrow=classic;startArrow=classic;html=1;rounded=0;entryX=0.5;entryY=1;entryDx=0;entryDy=0;exitX=0.5;exitY=0;exitDx=0;exitDy=0;fillColor=default;" edge="1" parent="1" source="Tn5OK8RQXXek_MzrMybz-16">
          <mxGeometry width="100" height="100" relative="1" as="geometry">
            <mxPoint x="554.76" y="530" as="sourcePoint" />
            <mxPoint x="554.76" y="480" as="targetPoint" />
          </mxGeometry>
        </mxCell>
        <mxCell id="Tn5OK8RQXXek_MzrMybz-18" value="" style="shape=flexArrow;endArrow=classic;startArrow=classic;html=1;rounded=0;entryX=0.5;entryY=1;entryDx=0;entryDy=0;fillColor=default;" edge="1" parent="1">
          <mxGeometry width="100" height="100" relative="1" as="geometry">
            <mxPoint x="960" y="370" as="sourcePoint" />
            <mxPoint x="870" y="370" as="targetPoint" />
          </mxGeometry>
        </mxCell>
        <mxCell id="Tn5OK8RQXXek_MzrMybz-19" value="独立外设1" style="whiteSpace=wrap;html=1;" vertex="1" parent="1">
          <mxGeometry x="970" y="350" width="70" height="40" as="geometry" />
        </mxCell>
        <mxCell id="Tn5OK8RQXXek_MzrMybz-20" value="" style="shape=flexArrow;endArrow=classic;startArrow=classic;html=1;rounded=0;entryX=0.5;entryY=1;entryDx=0;entryDy=0;fillColor=default;" edge="1" parent="1">
          <mxGeometry width="100" height="100" relative="1" as="geometry">
            <mxPoint x="960" y="460" as="sourcePoint" />
            <mxPoint x="870" y="460" as="targetPoint" />
          </mxGeometry>
        </mxCell>
        <mxCell id="Tn5OK8RQXXek_MzrMybz-21" value="独立外设n" style="whiteSpace=wrap;html=1;" vertex="1" parent="1">
          <mxGeometry x="970" y="440" width="70" height="40" as="geometry" />
        </mxCell>
        <mxCell id="Tn5OK8RQXXek_MzrMybz-22" value="&lt;font style=&quot;font-size: 29px;&quot;&gt;...&lt;/font&gt;" style="text;html=1;align=center;verticalAlign=middle;whiteSpace=wrap;rounded=0;rotation=-90;" vertex="1" parent="1">
          <mxGeometry x="967" y="409.75" width="60" height="10.5" as="geometry" />
        </mxCell>
        <mxCell id="Tn5OK8RQXXek_MzrMybz-23" value="&lt;font style=&quot;font-size: 29px;&quot;&gt;...&lt;/font&gt;" style="text;html=1;align=center;verticalAlign=middle;whiteSpace=wrap;rounded=0;rotation=-90;" vertex="1" parent="1">
          <mxGeometry x="878" y="409.75" width="60" height="10.5" as="geometry" />
        </mxCell>
      </root>
    </mxGraphModel>
  </diagram>
</mxfile>
